<svg width="512" height="512" viewBox="0 0 512 512" fill="none" xmlns="http://www.w3.org/2000/svg">
<path d="M460.48 440.48L433.44 466.96H78.4799L51.4399 440.48L57.1999 309.68C57.1999 309.68 101.6 349.28 255.92 349.28C410.24 349.28 454.64 309.68 454.64 309.68L460.4 440.48H460.48Z" fill="#87A6BA"/>
<path d="M354.32 409.6C354.32 409.6 348.64 383.04 363.6 376.88C408.08 358.72 426.08 349.84 433.04 346C435.04 344.88 437.52 346.32 437.52 348.64C437.52 357.28 434.96 375.36 415.6 389.2C389.2 408.08 354.4 409.6 354.4 409.6H354.32ZM157.68 409.6C157.68 409.6 163.36 383.04 148.4 376.88C103.92 358.72 85.92 349.84 78.96 346C78.501 345.743 77.9825 345.61 77.4562 345.615C76.9299 345.621 76.4143 345.765 75.9608 346.032C75.5074 346.299 75.132 346.681 74.8721 347.138C74.6123 347.596 74.4771 348.114 74.48 348.64C74.48 357.28 77.04 375.36 96.4 389.2C122.8 408.08 157.6 409.6 157.6 409.6H157.68Z" fill="#E2FCFD"/>
<path d="M454.72 309.68C454.72 309.68 410.32 349.28 256 349.28C101.68 349.28 57.2798 309.68 57.2798 309.68L59.1998 265.84C59.3598 266.96 61.3598 278.96 89.0398 287.04C123.28 296.88 256 296.88 256 296.88C256 296.88 388.8 296.88 422.96 287.04C450.64 279.04 452.64 267.04 452.8 265.84L454.72 309.68Z" fill="#0B2037"/>
<path d="M117.28 135.04C101.04 135.12 90 135.2 86.48 135.28C67.68 135.84 64.48 154.4 64 158.96L66.48 101.52C66.48 101.52 66.4 99.7601 66.64 97.1201C66.64 96.9601 66.72 96.8801 66.72 96.7201C67.52 89.6001 71.2 77.2801 86.48 76.8001C90.4 76.7201 103.12 76.6401 121.6 76.5601C121.6 76.5601 127.28 117.76 117.28 135.12V135.04ZM448 158.88C447.52 154.32 444.24 135.84 425.52 135.2C422 135.12 410.88 135.04 394.72 134.96C385.2 118.48 389.68 81.7601 390.4 76.4001C408.88 76.4001 421.68 76.5601 425.52 76.6401C440.8 77.1201 444.48 89.4401 445.28 96.5601C445.28 96.7201 445.36 96.8001 445.36 96.9601C445.6 99.6001 445.52 101.36 445.52 101.36L448 158.8V158.88Z" fill="#87A6BA"/>
<path d="M394.72 135.04C386.56 135.04 377.04 134.96 366.64 134.96C335.44 134.88 295.76 134.88 256 134.88C202.96 134.88 149.84 134.88 117.28 135.04C127.28 117.68 121.6 76.4801 121.6 76.4801C187.2 76.2401 324.8 76.2401 390.4 76.4001C389.68 81.7601 385.2 118.56 394.72 135.04Z" fill="#0B2037"/>
<path d="M445.28 96.6402C444.48 89.5202 440.8 77.2002 425.52 76.7202C421.6 76.6402 408.88 76.4802 390.4 76.4002C324.8 76.2402 187.2 76.2402 121.6 76.4802C103.12 76.5602 90.3202 76.6402 86.4802 76.7202C71.2002 77.2002 67.5202 89.5202 66.7202 96.6402L67.3602 80.8002C67.6873 72.8181 70.244 65.0873 74.7404 58.4841C79.2368 51.8809 85.4931 46.6693 92.8002 43.4402C96.6402 41.6802 100.8 40.5602 105.2 40.0802C125.68 37.6802 156.96 35.3602 204.16 34.4002C219.68 34.0802 236.88 33.9202 256 33.9202C275.12 33.9202 292.32 34.0802 307.84 34.4002C310.16 34.4802 312.48 34.4802 314.72 34.5602C316.96 34.6402 319.12 34.6402 321.28 34.7202L336.16 35.2002C339.36 35.2802 342.56 35.4402 345.52 35.5202L356.32 36.0002C360.24 36.2402 363.84 36.4002 367.36 36.6402C370.08 36.8002 372.8 36.9602 375.36 37.2002C377.76 37.3602 380 37.5202 382.16 37.6802C384.64 37.8402 387.04 38.0002 389.36 38.2402C391.52 38.4002 393.52 38.5602 395.44 38.8002C397.52 38.9602 399.44 39.1202 401.28 39.3602C403.2 39.5202 405.04 39.7602 406.72 39.9202C416.845 41.0842 426.222 45.8265 433.16 53.2925C440.097 60.7584 444.14 70.4569 444.56 80.6402L445.2 96.4802L445.28 96.6402Z" fill="#2C485D"/>
<path d="M452.8 265.76C452.64 266.96 450.64 278.96 422.96 287.04C388.72 296.88 256 296.88 256 296.88V134.88C295.68 134.88 335.44 134.88 366.64 134.96C377.04 134.96 386.56 135.04 394.72 135.04C410.96 135.12 422 135.2 425.52 135.28C444.32 135.84 447.52 154.4 448 158.96C448.08 159.6 448.08 160 448.08 160L452.8 265.84V265.76Z" fill="#2FD1F7"/>
<path d="M256 134.88V296.88C256 296.88 123.2 296.88 89.0401 287.04C61.3601 279.04 59.3601 267.04 59.2001 265.84C59.0401 264.64 63.9201 159.92 63.9201 159.92C63.9201 159.92 63.9201 159.52 64.0001 158.88C64.4801 154.32 67.7601 135.84 86.4801 135.2C97.1201 134.88 176.56 134.8 256 134.8V134.88Z" fill="#26C0F2"/>
<path d="M189.44 405.44L184.16 382.72C183.884 381.516 183.883 380.264 184.156 379.059C184.429 377.854 184.969 376.726 185.738 375.758C186.506 374.79 187.482 374.007 188.594 373.467C189.705 372.928 190.924 372.645 192.16 372.64H319.84C325.12 372.64 329.04 377.52 327.84 382.72L322.56 405.44C321.68 409.2 318.4 411.76 314.56 411.76H197.36C193.52 411.76 190.24 409.12 189.36 405.44H189.44Z" fill="#0B2037"/>
<path d="M204.16 34.3201C156.96 35.2801 125.68 37.6001 105.2 40.0001C100.92 40.4838 96.7385 41.6168 92.7998 43.3601C143.76 -4.95991 200.64 31.8401 204.16 34.2401V34.3201ZM419.2 43.4401C415.36 41.6801 411.2 40.5601 406.8 40.0801C405.04 39.9201 403.28 39.6801 401.36 39.5201C399.44 39.2801 397.52 39.1201 395.52 38.9601C393.52 38.7201 391.52 38.5601 389.44 38.4001C387.12 38.1601 384.72 38.0001 382.24 37.8401C380.08 37.6001 377.84 37.4401 375.44 37.3601C372.88 37.1201 370.16 36.9601 367.44 36.8001C363.92 36.5601 360.24 36.4001 356.4 36.1601L345.6 35.6801C342.64 35.6001 339.52 35.4401 336.24 35.3601L321.36 34.8801C319.2 34.8001 317.04 34.8001 314.8 34.7201C312.56 34.6401 310.24 34.6401 307.92 34.5601C311.36 32.1601 368.32 -4.71991 419.28 43.6801L419.2 43.4401Z" fill="#CD8B47"/>
<path d="M407.12 447.2C414.454 447.2 420.4 441.254 420.4 433.92C420.4 426.586 414.454 420.64 407.12 420.64C399.786 420.64 393.84 426.586 393.84 433.92C393.84 441.254 399.786 447.2 407.12 447.2Z" fill="#E2FCFD"/>
<path d="M104.88 447.2C112.214 447.2 118.16 441.254 118.16 433.92C118.16 426.586 112.214 420.64 104.88 420.64C97.5458 420.64 91.6001 426.586 91.6001 433.92C91.6001 441.254 97.5458 447.2 104.88 447.2Z" fill="#E2FCFD"/>
<path d="M422.96 466.88V484.32C422.96 489.28 418.88 493.36 413.92 493.36H382.56C377.6 493.36 373.6 489.28 373.6 484.32V466.88H422.88H422.96ZM138.32 466.88V484.32C138.32 489.28 134.32 493.36 129.36 493.36H98C93.04 493.36 88.96 489.28 88.96 484.32V466.88H138.24H138.32Z" fill="#0B2037"/>
<path d="M496.96 150.56H478.4C474.512 150.56 471.36 153.712 471.36 157.6V210.16C471.36 214.048 474.512 217.2 478.4 217.2H496.96C500.848 217.2 504 214.048 504 210.16V157.6C504 153.712 500.848 150.56 496.96 150.56Z" fill="#0B2037"/>
<path d="M496.72 117.04V150.48H478.72V119.28H446.4L445.6 101.36H481.12C489.68 101.36 496.72 108.4 496.72 116.96V117.04Z" fill="#2C485D"/>
<path d="M33.6 150.56H15.04C11.1519 150.56 8 153.712 8 157.6V210.16C8 214.048 11.1519 217.2 15.04 217.2H33.6C37.4881 217.2 40.64 214.048 40.64 210.16V157.6C40.64 153.712 37.4881 150.56 33.6 150.56Z" fill="#0B2037"/>
<path d="M66.4798 101.44L65.6798 119.36H33.3598V150.56H15.2798V117.12C15.2798 108.56 22.3198 101.52 30.8798 101.52H66.3998L66.4798 101.44Z" fill="#2C485D"/>
</svg>
