<svg width="512" height="512" viewBox="0 0 512 512" fill="none" xmlns="http://www.w3.org/2000/svg">
<g clip-path="url(#clip0_78_515)">
<mask id="mask0_78_515" style="mask-type:luminance" maskUnits="userSpaceOnUse" x="0" y="0" width="512" height="512">
<path d="M512 0H0V512H512V0Z" fill="white"/>
</mask>
<g mask="url(#mask0_78_515)">
<path d="M165 68.715L138.673 42.388L176.036 5.02502C176.925 4.13595 177.98 3.43069 179.142 2.94952C180.304 2.46836 181.549 2.2207 182.806 2.2207C184.063 2.2207 185.308 2.46836 186.47 2.94952C187.631 3.43069 188.687 4.13595 189.576 5.02502L202.362 17.811C203.251 18.7001 203.956 19.7555 204.437 20.9171C204.919 22.0787 205.166 23.3237 205.166 24.581C205.166 25.8383 204.919 27.0833 204.437 28.2449C203.956 29.4065 203.251 30.462 202.362 31.351L165 68.715ZM234.998 101.725L208.671 75.398L246.034 38.035C246.923 37.1459 247.978 36.4407 249.14 35.9595C250.302 35.4784 251.547 35.2307 252.804 35.2307C254.061 35.2307 255.306 35.4784 256.468 35.9595C257.629 36.4407 258.685 37.1459 259.574 38.035L272.36 50.821C273.249 51.7101 273.954 52.7655 274.435 53.9271C274.917 55.0887 275.164 56.3337 275.164 57.591C275.164 58.8483 274.917 60.0933 274.435 61.2549C273.954 62.4165 273.249 63.472 272.36 64.361L234.998 101.725ZM445.507 349.222L471.834 375.549L509.197 338.186C510.086 337.297 510.791 336.242 511.272 335.08C511.754 333.918 512.001 332.673 512.001 331.416C512.001 330.159 511.754 328.914 511.272 327.752C510.791 326.591 510.086 325.535 509.197 324.646L496.41 311.859C495.521 310.97 494.465 310.265 493.304 309.784C492.142 309.302 490.897 309.055 489.64 309.055C488.383 309.055 487.138 309.302 485.976 309.784C484.814 310.265 483.759 310.97 482.87 311.859L445.507 349.222ZM408.054 279.224L434.381 305.551L471.744 268.188C472.633 267.299 473.338 266.244 473.819 265.082C474.301 263.92 474.548 262.675 474.548 261.418C474.548 260.161 474.301 258.916 473.819 257.754C473.338 256.593 472.633 255.537 471.744 254.648L458.958 241.862C458.069 240.973 457.013 240.268 455.852 239.787C454.69 239.305 453.445 239.058 452.188 239.058C450.931 239.058 449.686 239.305 448.524 239.787C447.362 240.268 446.307 240.973 445.418 241.862L408.054 279.224Z" fill="#0B2037"/>
<path d="M443.378 458.836L276.261 234.948L52.372 67.83C44.527 61.974 43.699 50.521 50.622 43.598L73.575 20.644C78.6 15.6187 85.0027 12.1967 91.9729 10.8109C98.9432 9.42519 106.168 10.1379 112.733 12.859L385.359 125.848L498.348 398.474C501.069 405.039 501.781 412.264 500.396 419.234C499.01 426.204 495.588 432.607 490.563 437.632L467.61 460.585C460.688 467.51 449.234 466.683 443.378 458.836ZM181.785 507.029L104.93 404.848L2.75 327.993C-0.598999 325.475 -0.943999 320.575 2.02 317.612L13.802 305.83C17.6791 301.953 22.6458 299.35 28.0401 298.367C33.4344 297.385 39 298.07 43.995 300.331L157.89 351.889L209.448 465.784C211.709 470.779 212.394 476.345 211.412 481.739C210.429 487.133 207.826 492.1 203.949 495.977L192.166 507.759C189.203 510.722 184.303 510.378 181.785 507.029Z" fill="#BED0DB"/>
<path d="M209.448 465.784L191.792 426.781L180.8 437.772C171.225 447.347 155.393 446.233 147.254 435.411L115.966 393.812L115.868 393.909L7.35877 312.273L2.01877 317.613C-0.944231 320.576 -0.599231 325.475 2.74877 327.994L104.93 404.849L181.785 507.03C184.303 510.379 189.203 510.724 192.166 507.76L203.949 495.977C207.826 492.1 210.429 487.133 211.412 481.739C212.394 476.345 211.709 470.779 209.448 465.784ZM497.749 427.311C498.211 426.312 498.643 425.301 499.01 424.266C499.756 422.146 500.301 419.96 500.638 417.738C501.629 411.358 500.929 404.7 498.349 398.473L481.925 358.843L480.882 356.326C479.892 364.251 476.287 371.62 470.639 377.267L447.686 400.22C440.763 407.143 429.311 406.316 423.454 398.47L290.651 220.557L52.3568 41.8621L50.6218 43.5971C46.0728 48.1461 44.8918 54.6441 46.8268 60.2311C47.8682 63.2638 49.8009 65.9117 52.3718 67.8281L197.836 176.407L276.261 234.946L334.8 313.371L443.379 458.835C445.295 461.406 447.943 463.339 450.976 464.38C456.563 466.315 463.062 465.134 467.611 460.585L490.564 437.632C493.549 434.642 495.981 431.148 497.749 427.311Z" fill="#87A6BA"/>
<path d="M104.914 432.283C87.42 440.631 69.147 422.358 77.495 404.864C96.0491 365.981 119.748 329.769 147.955 297.203L341.791 73.417C370.468 40.309 410.845 19.5845 454.463 15.586L466.348 14.497C482.916 12.978 496.801 26.862 495.283 43.431L494.194 55.316C490.195 98.9335 469.47 139.311 436.363 167.988L212.576 361.824C180.01 390.031 143.798 413.729 104.914 432.283Z" fill="#2FD1F7"/>
<path d="M494.193 55.316L495.282 43.431C496.801 26.863 482.916 12.978 466.347 14.497L454.462 15.586C454.307 15.6 454.153 15.62 453.998 15.634C449.896 59.0794 429.199 99.2699 396.215 127.842L81.6138 428.357C87.3288 434 96.2168 436.434 104.914 432.283C143.797 413.729 180.009 390.031 212.575 361.824L436.361 167.988C469.469 139.311 490.194 98.9337 494.193 55.316Z" fill="#31B4DE"/>
<path d="M400.891 56.2599C398.868 56.0873 396.858 56.7254 395.304 58.0339C393.751 59.3423 392.78 61.2142 392.606 63.2379C392.434 65.2618 393.072 67.2713 394.38 68.8249C395.689 70.3785 397.561 71.3489 399.584 71.5229C422.553 73.4889 436.286 87.2229 438.251 110.19C438.403 111.988 439.187 113.675 440.464 114.95C441.575 116.061 443 116.803 444.546 117.077C446.093 117.35 447.686 117.142 449.111 116.48C450.535 115.818 451.721 114.734 452.508 113.375C453.296 112.016 453.647 110.448 453.513 108.883C450.919 78.5309 431.245 58.8559 400.891 56.2599Z" fill="white"/>
<path d="M446.538 117.17C448.562 116.996 450.434 116.026 451.743 114.472C453.051 112.919 453.689 110.909 453.516 108.885C452.245 94.0359 446.879 81.7529 438.185 72.7639C435.825 77.7068 433.227 82.5325 430.4 87.2239C434.792 93.2949 437.467 101.002 438.253 110.191C438.405 111.989 439.189 113.676 440.466 114.951C441.255 115.742 442.207 116.35 443.256 116.734C444.305 117.117 445.425 117.266 446.538 117.17Z" fill="#BED0DB"/>
</g>
</g>
<defs>
<clipPath id="clip0_78_515">
<rect width="512" height="512" fill="white"/>
</clipPath>
</defs>
</svg>
