<svg width="512" height="512" viewBox="0 0 512 512" fill="none" xmlns="http://www.w3.org/2000/svg">
<path d="M175.123 411.187C173.439 411.186 171.815 410.561 170.563 409.435C169.311 408.308 168.52 406.759 168.341 405.084C168.162 403.409 168.609 401.728 169.595 400.362C170.581 398.997 172.037 398.044 173.682 397.687L494.229 328.227C497.919 327.42 501.552 329.768 502.349 333.453C503.146 337.139 500.805 340.773 497.123 341.574L176.576 411.033C176.09 411.14 175.603 411.187 175.123 411.187ZM8.37711 411.187C6.86051 411.186 5.3873 410.681 4.1898 409.75C2.99231 408.82 2.13868 407.517 1.76354 406.047C1.54246 405.179 1.49469 404.275 1.62297 403.387C1.75124 402.5 2.05303 401.647 2.51112 400.876C2.96921 400.105 3.57461 399.432 4.29277 398.896C5.01093 398.359 5.82777 397.969 6.69666 397.748L279.457 328.289C283.103 327.335 286.824 329.562 287.756 333.215C287.977 334.084 288.025 334.988 287.897 335.875C287.769 336.762 287.467 337.616 287.009 338.387C286.551 339.157 285.945 339.83 285.227 340.367C284.509 340.904 283.692 341.294 282.823 341.515L10.0641 410.973C9.51328 411.116 8.9463 411.188 8.37711 411.187Z" fill="#64798A"/>
<path d="M192.5 113.146C192.5 105.602 200.536 100.775 207.196 104.318L506.696 263.64C509.96 265.377 512 268.772 512 272.469V329.263C512 334.175 508.433 338.359 503.583 339.137L204.083 387.143C198.006 388.117 192.5 383.424 192.5 377.269V113.146Z" fill="#099ECE"/>
<path d="M231.51 164.248C241.681 172.645 253.628 181.724 267.145 191.076V261.117C255.034 255.605 243.147 249.616 231.51 243.164V164.248ZM277.591 198.109C289.39 205.966 301.457 213.411 313.772 220.432V280.098C300.733 275.388 288.65 270.609 277.591 265.83V198.109ZM324.217 226.166C336.088 232.61 348.154 238.688 360.399 244.393V294.569C347.633 291.156 335.549 287.47 324.217 283.714V226.166ZM370.842 249.104C382.379 254.224 394.395 259.138 407.024 263.917V305.219C394.892 302.916 382.827 300.275 370.842 297.3V249.104ZM417.468 267.809C428.596 271.769 440.27 275.523 452.217 279.141V312.182C440.27 310.749 428.664 309.042 417.468 307.062V267.809ZM484.712 288.152V314.639L482.458 314.98C475.768 314.503 469.146 313.957 462.661 313.274V282.281C469.829 284.329 477.202 286.241 484.712 288.152Z" fill="#E6EBEF"/>
<path d="M210.03 382.733C206.279 386.484 201.192 388.591 195.888 388.591H45.8462C40.5416 388.591 35.4543 386.484 31.7034 382.733C23.0887 374.118 14.4737 365.503 5.85844 356.888C2.10739 353.137 0 348.05 0 342.745V146.659C0 141.354 2.10714 136.267 5.85787 132.517L31.7036 106.671C35.4543 102.92 40.5414 100.813 45.8457 100.813H195.887C201.191 100.813 206.278 102.92 210.029 106.671L235.875 132.517C239.625 136.267 241.733 141.354 241.733 146.659V342.745C241.733 348.049 239.626 353.136 235.875 356.887L210.03 382.733Z" fill="#2FD1F7"/>
<mask id="mask0_78_545" style="mask-type:luminance" maskUnits="userSpaceOnUse" x="34" y="139" width="174" height="109">
<path d="M203 139H39C36.2386 139 34 141.239 34 144V243C34 245.761 36.2386 248 39 248H203C205.761 248 208 245.761 208 243V144C208 141.239 205.761 139 203 139Z" fill="white"/>
</mask>
<g mask="url(#mask0_78_545)">
<path d="M202.6 248.117C205.361 248.117 207.6 245.878 207.6 243.117V158.22C207.6 156.894 207.073 155.622 206.135 154.684L191.498 140.047C190.56 139.109 189.288 138.582 187.962 138.582H53.7714C52.4454 138.582 51.1736 139.109 50.2359 140.047L35.5983 154.684C34.6606 155.622 34.1338 156.894 34.1338 158.22V243.117C34.1338 245.878 36.3724 248.117 39.1338 248.117H202.6Z" fill="#E6EBEF"/>
<path d="M203.449 255.534C206.23 255.534 208.477 253.265 208.449 250.484L207.52 158.503C207.507 157.217 207 155.986 206.103 155.065L191.984 140.565C190.266 138.8 187.519 138.55 185.51 139.974L35.3068 246.455C31.3311 249.274 33.3251 255.534 38.1985 255.534H203.449Z" fill="#D5D6DB"/>
</g>
<path d="M66.6014 350.823C83.5678 350.823 97.3218 337.069 97.3218 320.103C97.3218 303.136 83.5678 289.382 66.6014 289.382C49.6349 289.382 35.8809 303.136 35.8809 320.103C35.8809 337.069 49.6349 350.823 66.6014 350.823Z" fill="#E6EBEF"/>
<path d="M66.6014 338.535C76.7814 338.535 85.0339 330.283 85.0339 320.103C85.0339 309.923 76.7814 301.67 66.6014 301.67C56.4215 301.67 48.1689 309.923 48.1689 320.103C48.1689 330.283 56.4215 338.535 66.6014 338.535Z" fill="#0B2037"/>
<path d="M175.104 350.823C192.07 350.823 205.824 337.069 205.824 320.103C205.824 303.136 192.07 289.382 175.104 289.382C158.137 289.382 144.383 303.136 144.383 320.103C144.383 337.069 158.137 350.823 175.104 350.823Z" fill="#E6EBEF"/>
<path d="M175.104 338.535C185.284 338.535 193.536 330.283 193.536 320.103C193.536 309.923 185.284 301.67 175.104 301.67C164.924 301.67 156.671 309.923 156.671 320.103C156.671 330.283 164.924 338.535 175.104 338.535Z" fill="#0B2037"/>
</svg>
